<?xml version="1.0" encoding="UTF-8" standalone="no"?>
<svg
   xmlns:dc="http://purl.org/dc/elements/1.1/"
   xmlns:cc="http://creativecommons.org/ns#"
   xmlns:rdf="http://www.w3.org/1999/02/22-rdf-syntax-ns#"
   xmlns:svg="http://www.w3.org/2000/svg"
   xmlns="http://www.w3.org/2000/svg"
   xmlns:sodipodi="http://sodipodi.sourceforge.net/DTD/sodipodi-0.dtd"
   xmlns:inkscape="http://www.inkscape.org/namespaces/inkscape"
   sodipodi:docname="titlebar_icon.svg"
   inkscape:version="1.0 (4035a4fb49, 2020-05-01)"
   id="svg8"
   version="1.1"
   viewBox="0 0 15.478125 15.478126"
   height="58.5"
   width="58.5">
  <defs
     id="defs2" />
  <sodipodi:namedview
     inkscape:window-maximized="1"
     inkscape:window-y="44"
     inkscape:window-x="-9"
     inkscape:window-height="996"
     inkscape:window-width="1920"
     units="px"
     showgrid="false"
     inkscape:document-rotation="0"
     inkscape:current-layer="layer1"
     inkscape:document-units="mm"
     inkscape:cy="36.831858"
     inkscape:cx="-20.766479"
     inkscape:zoom="5.6"
     inkscape:pageshadow="2"
     inkscape:pageopacity="0.0"
     borderopacity="1.0"
     bordercolor="#666666"
     pagecolor="#ffffff"
     id="base" />
  <metadata
     id="metadata5">
    <rdf:RDF>
      <cc:Work
         rdf:about="">
        <dc:format>image/svg+xml</dc:format>
        <dc:type
           rdf:resource="http://purl.org/dc/dcmitype/StillImage" />
        <dc:title></dc:title>
      </cc:Work>
    </rdf:RDF>
  </metadata>
  <g
     id="layer1"
     inkscape:groupmode="layer"
     inkscape:label="Layer 1">
    <g
       id="g1763"
       transform="matrix(2.7771209,0,0,2.7766941,959.92044,1819.542)"
       inkscape:export-xdpi="96"
       inkscape:export-ydpi="96">
      <g
         transform="matrix(0.08353261,-0.00862774,0.00862641,0.08354545,-268.62048,-636.03027)"
         id="g1749"
         style="fill:#f60000;fill-opacity:1">
        <path
           id="path1651"
           style="fill:#f60000;fill-opacity:1;stroke:#373737;stroke-width:0;stroke-miterlimit:4;stroke-dasharray:none;stroke-opacity:1"
           d="m -832.57219,-285.91797 a 26.726337,26.726341 0 0 1 -26.72633,26.72634 26.726337,26.726341 0 0 1 -26.72634,-26.72634 26.726337,26.726341 0 0 1 26.72634,-26.72634 26.726337,26.726341 0 0 1 26.72633,26.72634" />
        <g
           id="g1659"
           transform="matrix(0.52916301,0,0,0.52916301,-399.61818,-159.0759)"
           style="fill:#f60000;fill-opacity:1">
          <path
             id="path1653"
             style="opacity:1;fill:#f60000;fill-opacity:1;stroke:#373737;stroke-width:0;stroke-miterlimit:4;stroke-dasharray:none;stroke-opacity:1"
             d="m -871.33911,-299.46121 h 5.29167 v 120.5744 h -5.29167 z" />
          <path
             id="path1655"
             style="opacity:1;fill:#f60000;fill-opacity:1;stroke:#373737;stroke-width:0;stroke-miterlimit:4;stroke-dasharray:none;stroke-opacity:1"
             d="m -863.73261,-297.76035 a 4.9606886,4.9606895 0 0 1 -4.96069,4.96069 4.9606886,4.9606895 0 0 1 -4.96069,-4.96069 4.9606886,4.9606895 0 0 1 4.96069,-4.96069 4.9606886,4.9606895 0 0 1 4.96069,4.96069" />
          <path
             id="path1657"
             style="opacity:1;fill:#f60000;fill-opacity:1;stroke:#373737;stroke-width:0;stroke-miterlimit:4;stroke-dasharray:none;stroke-opacity:1"
             d="m -863.73261,-181.64604 a 4.9606886,4.9606895 0 0 1 -4.96069,4.96069 4.9606886,4.9606895 0 0 1 -4.96069,-4.96069 4.9606886,4.9606895 0 0 1 4.96069,-4.96069 4.9606886,4.9606895 0 0 1 4.96069,4.96069" />
        </g>
        <g
           transform="matrix(0.51113222,0.13695746,-0.13695746,0.51113222,-448.11055,-44.423912)"
           id="g1667"
           style="fill:#f60000;fill-opacity:1">
          <path
             id="path1661"
             style="opacity:1;fill:#f60000;fill-opacity:1;stroke:#373737;stroke-width:0;stroke-miterlimit:4;stroke-dasharray:none;stroke-opacity:1"
             d="m -871.33911,-299.46121 h 5.29167 v 120.5744 h -5.29167 z" />
          <path
             id="path1663"
             style="opacity:1;fill:#f60000;fill-opacity:1;stroke:#373737;stroke-width:0;stroke-miterlimit:4;stroke-dasharray:none;stroke-opacity:1"
             d="m -863.73261,-297.76035 a 4.9606886,4.9606895 0 0 1 -4.96069,4.96069 4.9606886,4.9606895 0 0 1 -4.96069,-4.96069 4.9606886,4.9606895 0 0 1 4.96069,-4.96069 4.9606886,4.9606895 0 0 1 4.96069,4.96069" />
          <path
             id="path1665"
             style="opacity:1;fill:#f60000;fill-opacity:1;stroke:#373737;stroke-width:0;stroke-miterlimit:4;stroke-dasharray:none;stroke-opacity:1"
             d="m -863.73261,-181.64604 a 4.9606886,4.9606895 0 0 1 -4.96069,4.96069 4.9606886,4.9606895 0 0 1 -4.96069,-4.96069 4.9606886,4.9606895 0 0 1 4.96069,-4.96069 4.9606886,4.9606895 0 0 1 4.96069,4.96069" />
        </g>
        <g
           id="g1675"
           transform="matrix(0.45826861,0.2645815,-0.2645815,0.45826861,-524.62471,53.77066)"
           style="fill:#f60000;fill-opacity:1">
          <path
             id="path1669"
             style="opacity:1;fill:#f60000;fill-opacity:1;stroke:#373737;stroke-width:0;stroke-miterlimit:4;stroke-dasharray:none;stroke-opacity:1"
             d="m -871.33911,-299.46121 h 5.29167 v 120.5744 h -5.29167 z" />
          <path
             id="path1671"
             style="opacity:1;fill:#f60000;fill-opacity:1;stroke:#373737;stroke-width:0;stroke-miterlimit:4;stroke-dasharray:none;stroke-opacity:1"
             d="m -863.73261,-297.76035 a 4.9606886,4.9606895 0 0 1 -4.96069,4.96069 4.9606886,4.9606895 0 0 1 -4.96069,-4.96069 4.9606886,4.9606895 0 0 1 4.96069,-4.96069 4.9606886,4.9606895 0 0 1 4.96069,4.96069" />
          <path
             id="path1673"
             style="opacity:1;fill:#f60000;fill-opacity:1;stroke:#373737;stroke-width:0;stroke-miterlimit:4;stroke-dasharray:none;stroke-opacity:1"
             d="m -863.73261,-181.64604 a 4.9606886,4.9606895 0 0 1 -4.96069,4.96069 4.9606886,4.9606895 0 0 1 -4.96069,-4.96069 4.9606886,4.9606895 0 0 1 4.96069,-4.96069 4.9606886,4.9606895 0 0 1 4.96069,4.96069" />
        </g>
        <g
           transform="matrix(0.37417475,0.37417475,-0.37417475,0.37417475,-623.94633,128.81601)"
           id="g1683"
           style="fill:#f60000;fill-opacity:1">
          <path
             id="path1677"
             style="opacity:1;fill:#f60000;fill-opacity:1;stroke:#373737;stroke-width:0;stroke-miterlimit:4;stroke-dasharray:none;stroke-opacity:1"
             d="m -871.33911,-299.46121 h 5.29167 v 120.5744 h -5.29167 z" />
          <path
             id="path1679"
             style="opacity:1;fill:#f60000;fill-opacity:1;stroke:#373737;stroke-width:0;stroke-miterlimit:4;stroke-dasharray:none;stroke-opacity:1"
             d="m -863.73261,-297.76035 a 4.9606886,4.9606895 0 0 1 -4.96069,4.96069 4.9606886,4.9606895 0 0 1 -4.96069,-4.96069 4.9606886,4.9606895 0 0 1 4.96069,-4.96069 4.9606886,4.9606895 0 0 1 4.96069,4.96069" />
          <path
             id="path1681"
             style="opacity:1;fill:#f60000;fill-opacity:1;stroke:#373737;stroke-width:0;stroke-miterlimit:4;stroke-dasharray:none;stroke-opacity:1"
             d="m -863.73261,-181.64604 a 4.9606886,4.9606895 0 0 1 -4.96069,4.96069 4.9606886,4.9606895 0 0 1 -4.96069,-4.96069 4.9606886,4.9606895 0 0 1 4.96069,-4.96069 4.9606886,4.9606895 0 0 1 4.96069,4.96069" />
        </g>
        <g
           id="g1691"
           transform="matrix(0.26458151,0.45826861,-0.45826861,0.26458151,-739.30681,175.59793)"
           style="fill:#f60000;fill-opacity:1">
          <path
             id="path1685"
             style="opacity:1;fill:#f60000;fill-opacity:1;stroke:#373737;stroke-width:0;stroke-miterlimit:4;stroke-dasharray:none;stroke-opacity:1"
             d="m -871.33911,-299.46121 h 5.29167 v 120.5744 h -5.29167 z" />
          <path
             id="path1687"
             style="opacity:1;fill:#f60000;fill-opacity:1;stroke:#373737;stroke-width:0;stroke-miterlimit:4;stroke-dasharray:none;stroke-opacity:1"
             d="m -863.73261,-297.76035 a 4.9606886,4.9606895 0 0 1 -4.96069,4.96069 4.9606886,4.9606895 0 0 1 -4.96069,-4.96069 4.9606886,4.9606895 0 0 1 4.96069,-4.96069 4.9606886,4.9606895 0 0 1 4.96069,4.96069" />
          <path
             id="path1689"
             style="opacity:1;fill:#f60000;fill-opacity:1;stroke:#373737;stroke-width:0;stroke-miterlimit:4;stroke-dasharray:none;stroke-opacity:1"
             d="m -863.73261,-181.64604 a 4.9606886,4.9606895 0 0 1 -4.96069,4.96069 4.9606886,4.9606895 0 0 1 -4.96069,-4.96069 4.9606886,4.9606895 0 0 1 4.96069,-4.96069 4.9606886,4.9606895 0 0 1 4.96069,4.96069" />
        </g>
        <g
           transform="matrix(0.13695746,0.51113222,-0.51113222,0.13695746,-862.84454,190.9283)"
           id="g1699"
           style="fill:#f60000;fill-opacity:1">
          <path
             id="path1693"
             style="opacity:1;fill:#f60000;fill-opacity:1;stroke:#373737;stroke-width:0;stroke-miterlimit:4;stroke-dasharray:none;stroke-opacity:1"
             d="m -871.33911,-299.46121 h 5.29167 v 120.5744 h -5.29167 z" />
          <path
             id="path1695"
             style="opacity:1;fill:#f60000;fill-opacity:1;stroke:#373737;stroke-width:0;stroke-miterlimit:4;stroke-dasharray:none;stroke-opacity:1"
             d="m -863.73261,-297.76035 a 4.9606886,4.9606895 0 0 1 -4.96069,4.96069 4.9606886,4.9606895 0 0 1 -4.96069,-4.96069 4.9606886,4.9606895 0 0 1 4.96069,-4.96069 4.9606886,4.9606895 0 0 1 4.96069,4.96069" />
          <path
             id="path1697"
             style="opacity:1;fill:#f60000;fill-opacity:1;stroke:#373737;stroke-width:0;stroke-miterlimit:4;stroke-dasharray:none;stroke-opacity:1"
             d="m -863.73261,-181.64604 a 4.9606886,4.9606895 0 0 1 -4.96069,4.96069 4.9606886,4.9606895 0 0 1 -4.96069,-4.96069 4.9606886,4.9606895 0 0 1 4.96069,-4.96069 4.9606886,4.9606895 0 0 1 4.96069,4.96069" />
        </g>
        <g
           id="g1707"
           transform="matrix(0,0.52916301,-0.52916301,0,-986.14061,173.76239)"
           style="fill:#f60000;fill-opacity:1">
          <path
             id="path1701"
             style="opacity:1;fill:#f60000;fill-opacity:1;stroke:#373737;stroke-width:0;stroke-miterlimit:4;stroke-dasharray:none;stroke-opacity:1"
             d="m -871.33911,-299.46121 h 5.29167 v 120.5744 h -5.29167 z" />
          <path
             id="path1703"
             style="opacity:1;fill:#f60000;fill-opacity:1;stroke:#373737;stroke-width:0;stroke-miterlimit:4;stroke-dasharray:none;stroke-opacity:1"
             d="m -863.73261,-297.76035 a 4.9606886,4.9606895 0 0 1 -4.96069,4.96069 4.9606886,4.9606895 0 0 1 -4.96069,-4.96069 4.9606886,4.9606895 0 0 1 4.96069,-4.96069 4.9606886,4.9606895 0 0 1 4.96069,4.96069" />
          <path
             id="path1705"
             style="opacity:1;fill:#f60000;fill-opacity:1;stroke:#373737;stroke-width:0;stroke-miterlimit:4;stroke-dasharray:none;stroke-opacity:1"
             d="m -863.73261,-181.64604 a 4.9606886,4.9606895 0 0 1 -4.96069,4.96069 4.9606886,4.9606895 0 0 1 -4.96069,-4.96069 4.9606886,4.9606895 0 0 1 4.96069,-4.96069 4.9606886,4.9606895 0 0 1 4.96069,4.96069" />
        </g>
        <g
           transform="matrix(-0.13695746,0.51113222,-0.51113222,-0.13695746,-1100.7926,125.27002)"
           id="g1715"
           style="fill:#f60000;fill-opacity:1">
          <path
             id="path1709"
             style="opacity:1;fill:#f60000;fill-opacity:1;stroke:#373737;stroke-width:0;stroke-miterlimit:4;stroke-dasharray:none;stroke-opacity:1"
             d="m -871.33911,-299.46121 h 5.29167 v 120.5744 h -5.29167 z" />
          <path
             id="path1711"
             style="opacity:1;fill:#f60000;fill-opacity:1;stroke:#373737;stroke-width:0;stroke-miterlimit:4;stroke-dasharray:none;stroke-opacity:1"
             d="m -863.73261,-297.76035 a 4.9606886,4.9606895 0 0 1 -4.96069,4.96069 4.9606886,4.9606895 0 0 1 -4.96069,-4.96069 4.9606886,4.9606895 0 0 1 4.96069,-4.96069 4.9606886,4.9606895 0 0 1 4.96069,4.96069" />
          <path
             id="path1713"
             style="opacity:1;fill:#f60000;fill-opacity:1;stroke:#373737;stroke-width:0;stroke-miterlimit:4;stroke-dasharray:none;stroke-opacity:1"
             d="m -863.73261,-181.64604 a 4.9606886,4.9606895 0 0 1 -4.96069,4.96069 4.9606886,4.9606895 0 0 1 -4.96069,-4.96069 4.9606886,4.9606895 0 0 1 4.96069,-4.96069 4.9606886,4.9606895 0 0 1 4.96069,4.96069" />
        </g>
        <g
           id="g1723"
           transform="matrix(-0.2645815,0.45826861,-0.45826861,-0.2645815,-1198.9872,48.755868)"
           style="fill:#f60000;fill-opacity:1">
          <path
             id="path1717"
             style="opacity:1;fill:#f60000;fill-opacity:1;stroke:#373737;stroke-width:0;stroke-miterlimit:4;stroke-dasharray:none;stroke-opacity:1"
             d="m -871.33911,-299.46121 h 5.29167 v 120.5744 h -5.29167 z" />
          <path
             id="path1719"
             style="opacity:1;fill:#f60000;fill-opacity:1;stroke:#373737;stroke-width:0;stroke-miterlimit:4;stroke-dasharray:none;stroke-opacity:1"
             d="m -863.73261,-297.76035 a 4.9606886,4.9606895 0 0 1 -4.96069,4.96069 4.9606886,4.9606895 0 0 1 -4.96069,-4.96069 4.9606886,4.9606895 0 0 1 4.96069,-4.96069 4.9606886,4.9606895 0 0 1 4.96069,4.96069" />
          <path
             id="path1721"
             style="opacity:1;fill:#f60000;fill-opacity:1;stroke:#373737;stroke-width:0;stroke-miterlimit:4;stroke-dasharray:none;stroke-opacity:1"
             d="m -863.73261,-181.64604 a 4.9606886,4.9606895 0 0 1 -4.96069,4.96069 4.9606886,4.9606895 0 0 1 -4.96069,-4.96069 4.9606886,4.9606895 0 0 1 4.96069,-4.96069 4.9606886,4.9606895 0 0 1 4.96069,4.96069" />
        </g>
        <g
           transform="matrix(-0.37417475,0.37417475,-0.37417475,-0.37417475,-1274.0325,-50.565752)"
           id="g1731"
           style="fill:#f60000;fill-opacity:1">
          <path
             id="path1725"
             style="opacity:1;fill:#f60000;fill-opacity:1;stroke:#373737;stroke-width:0;stroke-miterlimit:4;stroke-dasharray:none;stroke-opacity:1"
             d="m -871.33911,-299.46121 h 5.29167 v 120.5744 h -5.29167 z" />
          <path
             id="path1727"
             style="opacity:1;fill:#f60000;fill-opacity:1;stroke:#373737;stroke-width:0;stroke-miterlimit:4;stroke-dasharray:none;stroke-opacity:1"
             d="m -863.73261,-297.76035 a 4.9606886,4.9606895 0 0 1 -4.96069,4.96069 4.9606886,4.9606895 0 0 1 -4.96069,-4.96069 4.9606886,4.9606895 0 0 1 4.96069,-4.96069 4.9606886,4.9606895 0 0 1 4.96069,4.96069" />
          <path
             id="path1729"
             style="opacity:1;fill:#f60000;fill-opacity:1;stroke:#373737;stroke-width:0;stroke-miterlimit:4;stroke-dasharray:none;stroke-opacity:1"
             d="m -863.73261,-181.64604 a 4.9606886,4.9606895 0 0 1 -4.96069,4.96069 4.9606886,4.9606895 0 0 1 -4.96069,-4.96069 4.9606886,4.9606895 0 0 1 4.96069,-4.96069 4.9606886,4.9606895 0 0 1 4.96069,4.96069" />
        </g>
        <g
           id="g1739"
           transform="matrix(-0.45826861,0.2645815,-0.2645815,-0.45826861,-1320.8144,-165.92624)"
           style="fill:#f60000;fill-opacity:1">
          <path
             id="path1733"
             style="opacity:1;fill:#f60000;fill-opacity:1;stroke:#373737;stroke-width:0;stroke-miterlimit:4;stroke-dasharray:none;stroke-opacity:1"
             d="m -871.33911,-299.46121 h 5.29167 v 120.5744 h -5.29167 z" />
          <path
             id="path1735"
             style="opacity:1;fill:#f60000;fill-opacity:1;stroke:#373737;stroke-width:0;stroke-miterlimit:4;stroke-dasharray:none;stroke-opacity:1"
             d="m -863.73261,-297.76035 a 4.9606886,4.9606895 0 0 1 -4.96069,4.96069 4.9606886,4.9606895 0 0 1 -4.96069,-4.96069 4.9606886,4.9606895 0 0 1 4.96069,-4.96069 4.9606886,4.9606895 0 0 1 4.96069,4.96069" />
          <path
             id="path1737"
             style="opacity:1;fill:#f60000;fill-opacity:1;stroke:#373737;stroke-width:0;stroke-miterlimit:4;stroke-dasharray:none;stroke-opacity:1"
             d="m -863.73261,-181.64604 a 4.9606886,4.9606895 0 0 1 -4.96069,4.96069 4.9606886,4.9606895 0 0 1 -4.96069,-4.96069 4.9606886,4.9606895 0 0 1 4.96069,-4.96069 4.9606886,4.9606895 0 0 1 4.96069,4.96069" />
        </g>
        <g
           transform="matrix(-0.51113222,0.13695746,-0.13695746,-0.51113222,-1336.1448,-289.46396)"
           id="g1747"
           style="fill:#f60000;fill-opacity:1">
          <path
             id="path1741"
             style="opacity:1;fill:#f60000;fill-opacity:1;stroke:#373737;stroke-width:0;stroke-miterlimit:4;stroke-dasharray:none;stroke-opacity:1"
             d="m -871.33911,-299.46121 h 5.29167 v 120.5744 h -5.29167 z" />
          <path
             id="path1743"
             style="opacity:1;fill:#f60000;fill-opacity:1;stroke:#373737;stroke-width:0;stroke-miterlimit:4;stroke-dasharray:none;stroke-opacity:1"
             d="m -863.73261,-297.76035 a 4.9606886,4.9606895 0 0 1 -4.96069,4.96069 4.9606886,4.9606895 0 0 1 -4.96069,-4.96069 4.9606886,4.9606895 0 0 1 4.96069,-4.96069 4.9606886,4.9606895 0 0 1 4.96069,4.96069" />
          <path
             id="path1745"
             style="opacity:1;fill:#f60000;fill-opacity:1;stroke:#373737;stroke-width:0;stroke-miterlimit:4;stroke-dasharray:none;stroke-opacity:1"
             d="m -863.73261,-181.64604 a 4.9606886,4.9606895 0 0 1 -4.96069,4.96069 4.9606886,4.9606895 0 0 1 -4.96069,-4.96069 4.9606886,4.9606895 0 0 1 4.96069,-4.96069 4.9606886,4.9606895 0 0 1 4.96069,4.96069" />
        </g>
      </g>
      <g
         id="g1761"
         transform="matrix(0.10331784,0,0,0.10333373,-343.40295,-598.2252)">
        <rect
           style="fill:#ffd5d5;fill-opacity:1;stroke:#373737;stroke-width:0;stroke-miterlimit:4;stroke-dasharray:none;stroke-opacity:1"
           id="rect1751"
           width="4.1664171"
           height="4.8266411"
           x="-6.8874474"
           y="-516.79852"
           ry="1.1627649" />
        <rect
           ry="1.4189477"
           y="-520.76929"
           x="-1.9558539"
           height="8.7974739"
           width="4.1664171"
           id="rect1753"
           style="fill:#ffb3b3;fill-opacity:1;stroke:#373737;stroke-width:0;stroke-miterlimit:4;stroke-dasharray:none;stroke-opacity:1" />
        <rect
           style="fill:#ff9797;fill-opacity:1;stroke:#373737;stroke-width:0;stroke-miterlimit:4;stroke-dasharray:none;stroke-opacity:1"
           id="rect1755"
           width="4.1664171"
           height="18.340281"
           x="2.975739"
           y="-530.31213"
           ry="1.2929205" />
        <rect
           ry="1.5863941"
           y="-534.4751"
           x="7.9969993"
           height="22.50325"
           width="4.1664171"
           id="rect1757"
           style="fill:#ff6f6f;fill-opacity:1;stroke:#373737;stroke-width:0;stroke-miterlimit:4;stroke-dasharray:none;stroke-opacity:1" />
        <rect
           style="fill:#ff4444;fill-opacity:1;stroke:#373737;stroke-width:0;stroke-miterlimit:4;stroke-dasharray:none;stroke-opacity:1"
           id="rect1759"
           width="4.1664171"
           height="26.602177"
           x="13.107926"
           y="-538.57404"
           ry="1.8753526" />
      </g>
    </g>
  </g>
</svg>
