<?xml version="1.0" encoding="UTF-8" standalone="no"?>
<svg
   xmlns:dc="http://purl.org/dc/elements/1.1/"
   xmlns:cc="http://creativecommons.org/ns#"
   xmlns:rdf="http://www.w3.org/1999/02/22-rdf-syntax-ns#"
   xmlns:svg="http://www.w3.org/2000/svg"
   xmlns="http://www.w3.org/2000/svg"
   xmlns:sodipodi="http://sodipodi.sourceforge.net/DTD/sodipodi-0.dtd"
   xmlns:inkscape="http://www.inkscape.org/namespaces/inkscape"
   sodipodi:docname="x_icon.svg"
   inkscape:version="1.0 (4035a4fb49, 2020-05-01)"
   id="svg8"
   version="1.1"
   viewBox="0 0 8.1491663 8.149167"
   height="30.799999"
   width="30.799999">
  <defs
     id="defs2" />
  <sodipodi:namedview
     inkscape:window-maximized="1"
     inkscape:window-y="44"
     inkscape:window-x="-9"
     inkscape:window-height="996"
     inkscape:window-width="1920"
     units="px"
     showgrid="false"
     inkscape:document-rotation="0"
     inkscape:current-layer="layer1"
     inkscape:document-units="mm"
     inkscape:cy="36.831858"
     inkscape:cx="-20.766479"
     inkscape:zoom="5.6"
     inkscape:pageshadow="2"
     inkscape:pageopacity="0.0"
     borderopacity="1.0"
     bordercolor="#666666"
     pagecolor="#ffffff"
     id="base" />
  <metadata
     id="metadata5">
    <rdf:RDF>
      <cc:Work
         rdf:about="">
        <dc:format>image/svg+xml</dc:format>
        <dc:type
           rdf:resource="http://purl.org/dc/dcmitype/StillImage" />
        <dc:title></dc:title>
      </cc:Work>
    </rdf:RDF>
  </metadata>
  <g
     id="layer1"
     inkscape:groupmode="layer"
     inkscape:label="Layer 1">
    <path
       d="M 4.074356,0 A 4.0745786,4.0745812 0 0 0 0,4.0746634 4.0745786,4.0745812 0 0 0 4.074649,8.1491667 4.0745786,4.0745812 0 0 0 8.1491667,4.0746634 4.0745786,4.0745812 0 0 0 4.074649,0 Z M 2.559887,2.2886965 c 0.06931,0 0.138641,0.026538 0.191739,0.079614 L 4.074649,3.6913448 5.397686,2.3683105 c 0.106165,-0.1061619 0.277159,-0.106172 0.383316,0 0.106173,0.106172 0.106173,0.2770166 0,0.3831786 L 4.457971,4.0746734 5.781002,5.3976975 c 0.106173,0.1061721 0.106173,0.2770068 0,0.3831787 -0.106157,0.1061721 -0.277151,0.1061619 -0.383316,0 L 4.074649,4.4578421 2.751626,5.7808762 c -0.106172,0.1061619 -0.27715,0.1061619 -0.383323,0 -0.106173,-0.1061719 -0.106173,-0.2770066 0,-0.3831787 L 3.691333,4.0746734 2.368303,2.7514891 c -0.106173,-0.106162 -0.106173,-0.2770066 0,-0.3831786 0.05308,-0.053076 0.12231,-0.079614 0.191584,-0.079614 z"
       style="fill:#ff4949;fill-opacity:1;stroke:none;stroke-width:0.162984;stroke-miterlimit:4;stroke-dasharray:none;stroke-opacity:1"
       id="path2809"
       inkscape:export-xdpi="96"
       inkscape:export-ydpi="96" />
  </g>
</svg>
