<?xml version="1.0" encoding="UTF-8" standalone="no"?>
<svg
   xmlns:dc="http://purl.org/dc/elements/1.1/"
   xmlns:cc="http://creativecommons.org/ns#"
   xmlns:rdf="http://www.w3.org/1999/02/22-rdf-syntax-ns#"
   xmlns:svg="http://www.w3.org/2000/svg"
   xmlns="http://www.w3.org/2000/svg"
   xmlns:sodipodi="http://sodipodi.sourceforge.net/DTD/sodipodi-0.dtd"
   xmlns:inkscape="http://www.inkscape.org/namespaces/inkscape"
   sodipodi:docname="ascending_cases_filter_icon.svg"
   inkscape:version="1.0 (4035a4fb49, 2020-05-01)"
   id="svg8"
   version="1.1"
   viewBox="0 0 10.583333 10.583334"
   height="40"
   width="40">
  <defs
     id="defs2" />
  <sodipodi:namedview
     inkscape:window-maximized="1"
     inkscape:window-y="44"
     inkscape:window-x="-9"
     inkscape:window-height="996"
     inkscape:window-width="1920"
     units="px"
     showgrid="false"
     inkscape:document-rotation="0"
     inkscape:current-layer="layer1"
     inkscape:document-units="mm"
     inkscape:cy="22.193169"
     inkscape:cx="3.2288896"
     inkscape:zoom="11.2"
     inkscape:pageshadow="2"
     inkscape:pageopacity="0.0"
     borderopacity="1.0"
     bordercolor="#666666"
     pagecolor="#ffffff"
     id="base" />
  <metadata
     id="metadata5">
    <rdf:RDF>
      <cc:Work
         rdf:about="">
        <dc:format>image/svg+xml</dc:format>
        <dc:type
           rdf:resource="http://purl.org/dc/dcmitype/StillImage" />
        <dc:title></dc:title>
      </cc:Work>
    </rdf:RDF>
  </metadata>
  <g
     id="layer1"
     inkscape:groupmode="layer"
     inkscape:label="Layer 1">
    <g
       transform="translate(-0.04783437,0.05239213)"
       id="g1005">
      <rect
         style="fill:#ff7070;fill-opacity:1;stroke:#ff7070;stroke-width:0.0488251;stroke-miterlimit:4;stroke-dasharray:none;stroke-opacity:1"
         id="rect2806"
         width="10.534508"
         height="10.534509"
         x="0.072246924"
         y="-0.027979579"
         ry="2.7843125"
         inkscape:export-xdpi="96"
         inkscape:export-ydpi="96" />
      <g
         id="g2816"
         transform="matrix(0.37203689,0,0,0.37203686,-96.089965,170.15628)"
         inkscape:export-xdpi="96"
         inkscape:export-ydpi="96">
        <text
           xml:space="preserve"
           style="font-size:20.1633px;line-height:1.25;font-family:Arial;-inkscape-font-specification:Arial;letter-spacing:0px;word-spacing:0px;stroke-width:1.26021"
           x="276.85992"
           y="-438.51196"
           id="text2810"><tspan
             sodipodi:role="line"
             id="tspan2808"
             x="276.85992"
             y="-438.51196"
             style="font-style:normal;font-variant:normal;font-weight:300;font-stretch:normal;font-family:'Josefin Sans';-inkscape-font-specification:'Josefin Sans Light';fill:#ffffff;fill-opacity:1;stroke-width:1.26021">^</tspan></text>
        <text
           transform="scale(1.0837207,0.92274699)"
           id="text2814"
           y="-475.40955"
           x="257.62061"
           style="font-size:18.6056px;line-height:1.25;font-family:Arial;-inkscape-font-specification:Arial;letter-spacing:0px;word-spacing:0px;stroke-width:1.16286"
           xml:space="preserve"><tspan
             style="font-style:normal;font-variant:normal;font-weight:300;font-stretch:normal;font-family:'Josefin Sans';-inkscape-font-specification:'Josefin Sans Light';fill:#ffffff;fill-opacity:1;stroke-width:1.16286"
             y="-475.40955"
             x="257.62061"
             id="tspan2812"
             sodipodi:role="line">|</tspan></text>
      </g>
      <g
         style="fill:#ffffff;fill-opacity:1"
         id="g2916"
         transform="matrix(0.09869633,-0.01019236,0.01019237,0.09869625,92.32044,24.864919)"
         inkscape:export-xdpi="96"
         inkscape:export-ydpi="96">
        <path
           d="m -832.57219,-285.91797 a 26.726337,26.726341 0 0 1 -26.72633,26.72634 26.726337,26.726341 0 0 1 -26.72634,-26.72634 26.726337,26.726341 0 0 1 26.72634,-26.72634 26.726337,26.726341 0 0 1 26.72633,26.72634"
           style="fill:#ffffff;fill-opacity:1;stroke:#373737;stroke-width:0;stroke-miterlimit:4;stroke-dasharray:none;stroke-opacity:1"
           id="path2818" />
        <g
           style="fill:#ffffff;fill-opacity:1"
           transform="matrix(0.52916301,0,0,0.52916301,-399.61818,-159.0759)"
           id="g2826">
          <path
             d="m -871.33911,-299.46121 h 5.29167 v 120.5744 h -5.29167 z"
             style="opacity:1;fill:#ffffff;fill-opacity:1;stroke:#373737;stroke-width:0;stroke-miterlimit:4;stroke-dasharray:none;stroke-opacity:1"
             id="path2820" />
          <path
             d="m -863.73261,-297.76035 a 4.9606886,4.9606895 0 0 1 -4.96069,4.96069 4.9606886,4.9606895 0 0 1 -4.96069,-4.96069 4.9606886,4.9606895 0 0 1 4.96069,-4.96069 4.9606886,4.9606895 0 0 1 4.96069,4.96069"
             style="opacity:1;fill:#ffffff;fill-opacity:1;stroke:#373737;stroke-width:0;stroke-miterlimit:4;stroke-dasharray:none;stroke-opacity:1"
             id="path2822" />
          <path
             d="m -863.73261,-181.64604 a 4.9606886,4.9606895 0 0 1 -4.96069,4.96069 4.9606886,4.9606895 0 0 1 -4.96069,-4.96069 4.9606886,4.9606895 0 0 1 4.96069,-4.96069 4.9606886,4.9606895 0 0 1 4.96069,4.96069"
             style="opacity:1;fill:#ffffff;fill-opacity:1;stroke:#373737;stroke-width:0;stroke-miterlimit:4;stroke-dasharray:none;stroke-opacity:1"
             id="path2824" />
        </g>
        <g
           style="fill:#ffffff;fill-opacity:1"
           id="g2834"
           transform="matrix(0.51113222,0.13695746,-0.13695746,0.51113222,-448.11055,-44.423912)">
          <path
             d="m -871.33911,-299.46121 h 5.29167 v 120.5744 h -5.29167 z"
             style="opacity:1;fill:#ffffff;fill-opacity:1;stroke:#373737;stroke-width:0;stroke-miterlimit:4;stroke-dasharray:none;stroke-opacity:1"
             id="path2828" />
          <path
             d="m -863.73261,-297.76035 a 4.9606886,4.9606895 0 0 1 -4.96069,4.96069 4.9606886,4.9606895 0 0 1 -4.96069,-4.96069 4.9606886,4.9606895 0 0 1 4.96069,-4.96069 4.9606886,4.9606895 0 0 1 4.96069,4.96069"
             style="opacity:1;fill:#ffffff;fill-opacity:1;stroke:#373737;stroke-width:0;stroke-miterlimit:4;stroke-dasharray:none;stroke-opacity:1"
             id="path2830" />
          <path
             d="m -863.73261,-181.64604 a 4.9606886,4.9606895 0 0 1 -4.96069,4.96069 4.9606886,4.9606895 0 0 1 -4.96069,-4.96069 4.9606886,4.9606895 0 0 1 4.96069,-4.96069 4.9606886,4.9606895 0 0 1 4.96069,4.96069"
             style="opacity:1;fill:#ffffff;fill-opacity:1;stroke:#373737;stroke-width:0;stroke-miterlimit:4;stroke-dasharray:none;stroke-opacity:1"
             id="path2832" />
        </g>
        <g
           style="fill:#ffffff;fill-opacity:1"
           transform="matrix(0.45826861,0.2645815,-0.2645815,0.45826861,-524.62471,53.77066)"
           id="g2842">
          <path
             d="m -871.33911,-299.46121 h 5.29167 v 120.5744 h -5.29167 z"
             style="opacity:1;fill:#ffffff;fill-opacity:1;stroke:#373737;stroke-width:0;stroke-miterlimit:4;stroke-dasharray:none;stroke-opacity:1"
             id="path2836" />
          <path
             d="m -863.73261,-297.76035 a 4.9606886,4.9606895 0 0 1 -4.96069,4.96069 4.9606886,4.9606895 0 0 1 -4.96069,-4.96069 4.9606886,4.9606895 0 0 1 4.96069,-4.96069 4.9606886,4.9606895 0 0 1 4.96069,4.96069"
             style="opacity:1;fill:#ffffff;fill-opacity:1;stroke:#373737;stroke-width:0;stroke-miterlimit:4;stroke-dasharray:none;stroke-opacity:1"
             id="path2838" />
          <path
             d="m -863.73261,-181.64604 a 4.9606886,4.9606895 0 0 1 -4.96069,4.96069 4.9606886,4.9606895 0 0 1 -4.96069,-4.96069 4.9606886,4.9606895 0 0 1 4.96069,-4.96069 4.9606886,4.9606895 0 0 1 4.96069,4.96069"
             style="opacity:1;fill:#ffffff;fill-opacity:1;stroke:#373737;stroke-width:0;stroke-miterlimit:4;stroke-dasharray:none;stroke-opacity:1"
             id="path2840" />
        </g>
        <g
           style="fill:#ffffff;fill-opacity:1"
           id="g2850"
           transform="matrix(0.37417475,0.37417475,-0.37417475,0.37417475,-623.94633,128.81601)">
          <path
             d="m -871.33911,-299.46121 h 5.29167 v 120.5744 h -5.29167 z"
             style="opacity:1;fill:#ffffff;fill-opacity:1;stroke:#373737;stroke-width:0;stroke-miterlimit:4;stroke-dasharray:none;stroke-opacity:1"
             id="path2844" />
          <path
             d="m -863.73261,-297.76035 a 4.9606886,4.9606895 0 0 1 -4.96069,4.96069 4.9606886,4.9606895 0 0 1 -4.96069,-4.96069 4.9606886,4.9606895 0 0 1 4.96069,-4.96069 4.9606886,4.9606895 0 0 1 4.96069,4.96069"
             style="opacity:1;fill:#ffffff;fill-opacity:1;stroke:#373737;stroke-width:0;stroke-miterlimit:4;stroke-dasharray:none;stroke-opacity:1"
             id="path2846" />
          <path
             d="m -863.73261,-181.64604 a 4.9606886,4.9606895 0 0 1 -4.96069,4.96069 4.9606886,4.9606895 0 0 1 -4.96069,-4.96069 4.9606886,4.9606895 0 0 1 4.96069,-4.96069 4.9606886,4.9606895 0 0 1 4.96069,4.96069"
             style="opacity:1;fill:#ffffff;fill-opacity:1;stroke:#373737;stroke-width:0;stroke-miterlimit:4;stroke-dasharray:none;stroke-opacity:1"
             id="path2848" />
        </g>
        <g
           style="fill:#ffffff;fill-opacity:1"
           transform="matrix(0.26458151,0.45826861,-0.45826861,0.26458151,-739.30681,175.59793)"
           id="g2858">
          <path
             d="m -871.33911,-299.46121 h 5.29167 v 120.5744 h -5.29167 z"
             style="opacity:1;fill:#ffffff;fill-opacity:1;stroke:#373737;stroke-width:0;stroke-miterlimit:4;stroke-dasharray:none;stroke-opacity:1"
             id="path2852" />
          <path
             d="m -863.73261,-297.76035 a 4.9606886,4.9606895 0 0 1 -4.96069,4.96069 4.9606886,4.9606895 0 0 1 -4.96069,-4.96069 4.9606886,4.9606895 0 0 1 4.96069,-4.96069 4.9606886,4.9606895 0 0 1 4.96069,4.96069"
             style="opacity:1;fill:#ffffff;fill-opacity:1;stroke:#373737;stroke-width:0;stroke-miterlimit:4;stroke-dasharray:none;stroke-opacity:1"
             id="path2854" />
          <path
             d="m -863.73261,-181.64604 a 4.9606886,4.9606895 0 0 1 -4.96069,4.96069 4.9606886,4.9606895 0 0 1 -4.96069,-4.96069 4.9606886,4.9606895 0 0 1 4.96069,-4.96069 4.9606886,4.9606895 0 0 1 4.96069,4.96069"
             style="opacity:1;fill:#ffffff;fill-opacity:1;stroke:#373737;stroke-width:0;stroke-miterlimit:4;stroke-dasharray:none;stroke-opacity:1"
             id="path2856" />
        </g>
        <g
           style="fill:#ffffff;fill-opacity:1"
           id="g2866"
           transform="matrix(0.13695746,0.51113222,-0.51113222,0.13695746,-862.84454,190.9283)">
          <path
             d="m -871.33911,-299.46121 h 5.29167 v 120.5744 h -5.29167 z"
             style="opacity:1;fill:#ffffff;fill-opacity:1;stroke:#373737;stroke-width:0;stroke-miterlimit:4;stroke-dasharray:none;stroke-opacity:1"
             id="path2860" />
          <path
             d="m -863.73261,-297.76035 a 4.9606886,4.9606895 0 0 1 -4.96069,4.96069 4.9606886,4.9606895 0 0 1 -4.96069,-4.96069 4.9606886,4.9606895 0 0 1 4.96069,-4.96069 4.9606886,4.9606895 0 0 1 4.96069,4.96069"
             style="opacity:1;fill:#ffffff;fill-opacity:1;stroke:#373737;stroke-width:0;stroke-miterlimit:4;stroke-dasharray:none;stroke-opacity:1"
             id="path2862" />
          <path
             d="m -863.73261,-181.64604 a 4.9606886,4.9606895 0 0 1 -4.96069,4.96069 4.9606886,4.9606895 0 0 1 -4.96069,-4.96069 4.9606886,4.9606895 0 0 1 4.96069,-4.96069 4.9606886,4.9606895 0 0 1 4.96069,4.96069"
             style="opacity:1;fill:#ffffff;fill-opacity:1;stroke:#373737;stroke-width:0;stroke-miterlimit:4;stroke-dasharray:none;stroke-opacity:1"
             id="path2864" />
        </g>
        <g
           style="fill:#ffffff;fill-opacity:1"
           transform="matrix(0,0.52916301,-0.52916301,0,-986.14061,173.76239)"
           id="g2874">
          <path
             d="m -871.33911,-299.46121 h 5.29167 v 120.5744 h -5.29167 z"
             style="opacity:1;fill:#ffffff;fill-opacity:1;stroke:#373737;stroke-width:0;stroke-miterlimit:4;stroke-dasharray:none;stroke-opacity:1"
             id="path2868" />
          <path
             d="m -863.73261,-297.76035 a 4.9606886,4.9606895 0 0 1 -4.96069,4.96069 4.9606886,4.9606895 0 0 1 -4.96069,-4.96069 4.9606886,4.9606895 0 0 1 4.96069,-4.96069 4.9606886,4.9606895 0 0 1 4.96069,4.96069"
             style="opacity:1;fill:#ffffff;fill-opacity:1;stroke:#373737;stroke-width:0;stroke-miterlimit:4;stroke-dasharray:none;stroke-opacity:1"
             id="path2870" />
          <path
             d="m -863.73261,-181.64604 a 4.9606886,4.9606895 0 0 1 -4.96069,4.96069 4.9606886,4.9606895 0 0 1 -4.96069,-4.96069 4.9606886,4.9606895 0 0 1 4.96069,-4.96069 4.9606886,4.9606895 0 0 1 4.96069,4.96069"
             style="opacity:1;fill:#ffffff;fill-opacity:1;stroke:#373737;stroke-width:0;stroke-miterlimit:4;stroke-dasharray:none;stroke-opacity:1"
             id="path2872" />
        </g>
        <g
           style="fill:#ffffff;fill-opacity:1"
           id="g2882"
           transform="matrix(-0.13695746,0.51113222,-0.51113222,-0.13695746,-1100.7926,125.27002)">
          <path
             d="m -871.33911,-299.46121 h 5.29167 v 120.5744 h -5.29167 z"
             style="opacity:1;fill:#ffffff;fill-opacity:1;stroke:#373737;stroke-width:0;stroke-miterlimit:4;stroke-dasharray:none;stroke-opacity:1"
             id="path2876" />
          <path
             d="m -863.73261,-297.76035 a 4.9606886,4.9606895 0 0 1 -4.96069,4.96069 4.9606886,4.9606895 0 0 1 -4.96069,-4.96069 4.9606886,4.9606895 0 0 1 4.96069,-4.96069 4.9606886,4.9606895 0 0 1 4.96069,4.96069"
             style="opacity:1;fill:#ffffff;fill-opacity:1;stroke:#373737;stroke-width:0;stroke-miterlimit:4;stroke-dasharray:none;stroke-opacity:1"
             id="path2878" />
          <path
             d="m -863.73261,-181.64604 a 4.9606886,4.9606895 0 0 1 -4.96069,4.96069 4.9606886,4.9606895 0 0 1 -4.96069,-4.96069 4.9606886,4.9606895 0 0 1 4.96069,-4.96069 4.9606886,4.9606895 0 0 1 4.96069,4.96069"
             style="opacity:1;fill:#ffffff;fill-opacity:1;stroke:#373737;stroke-width:0;stroke-miterlimit:4;stroke-dasharray:none;stroke-opacity:1"
             id="path2880" />
        </g>
        <g
           style="fill:#ffffff;fill-opacity:1"
           transform="matrix(-0.2645815,0.45826861,-0.45826861,-0.2645815,-1198.9872,48.755868)"
           id="g2890">
          <path
             d="m -871.33911,-299.46121 h 5.29167 v 120.5744 h -5.29167 z"
             style="opacity:1;fill:#ffffff;fill-opacity:1;stroke:#373737;stroke-width:0;stroke-miterlimit:4;stroke-dasharray:none;stroke-opacity:1"
             id="path2884" />
          <path
             d="m -863.73261,-297.76035 a 4.9606886,4.9606895 0 0 1 -4.96069,4.96069 4.9606886,4.9606895 0 0 1 -4.96069,-4.96069 4.9606886,4.9606895 0 0 1 4.96069,-4.96069 4.9606886,4.9606895 0 0 1 4.96069,4.96069"
             style="opacity:1;fill:#ffffff;fill-opacity:1;stroke:#373737;stroke-width:0;stroke-miterlimit:4;stroke-dasharray:none;stroke-opacity:1"
             id="path2886" />
          <path
             d="m -863.73261,-181.64604 a 4.9606886,4.9606895 0 0 1 -4.96069,4.96069 4.9606886,4.9606895 0 0 1 -4.96069,-4.96069 4.9606886,4.9606895 0 0 1 4.96069,-4.96069 4.9606886,4.9606895 0 0 1 4.96069,4.96069"
             style="opacity:1;fill:#ffffff;fill-opacity:1;stroke:#373737;stroke-width:0;stroke-miterlimit:4;stroke-dasharray:none;stroke-opacity:1"
             id="path2888" />
        </g>
        <g
           style="fill:#ffffff;fill-opacity:1"
           id="g2898"
           transform="matrix(-0.37417475,0.37417475,-0.37417475,-0.37417475,-1274.0325,-50.565752)">
          <path
             d="m -871.33911,-299.46121 h 5.29167 v 120.5744 h -5.29167 z"
             style="opacity:1;fill:#ffffff;fill-opacity:1;stroke:#373737;stroke-width:0;stroke-miterlimit:4;stroke-dasharray:none;stroke-opacity:1"
             id="path2892" />
          <path
             d="m -863.73261,-297.76035 a 4.9606886,4.9606895 0 0 1 -4.96069,4.96069 4.9606886,4.9606895 0 0 1 -4.96069,-4.96069 4.9606886,4.9606895 0 0 1 4.96069,-4.96069 4.9606886,4.9606895 0 0 1 4.96069,4.96069"
             style="opacity:1;fill:#ffffff;fill-opacity:1;stroke:#373737;stroke-width:0;stroke-miterlimit:4;stroke-dasharray:none;stroke-opacity:1"
             id="path2894" />
          <path
             d="m -863.73261,-181.64604 a 4.9606886,4.9606895 0 0 1 -4.96069,4.96069 4.9606886,4.9606895 0 0 1 -4.96069,-4.96069 4.9606886,4.9606895 0 0 1 4.96069,-4.96069 4.9606886,4.9606895 0 0 1 4.96069,4.96069"
             style="opacity:1;fill:#ffffff;fill-opacity:1;stroke:#373737;stroke-width:0;stroke-miterlimit:4;stroke-dasharray:none;stroke-opacity:1"
             id="path2896" />
        </g>
        <g
           style="fill:#ffffff;fill-opacity:1"
           transform="matrix(-0.45826861,0.2645815,-0.2645815,-0.45826861,-1320.8144,-165.92624)"
           id="g2906">
          <path
             d="m -871.33911,-299.46121 h 5.29167 v 120.5744 h -5.29167 z"
             style="opacity:1;fill:#ffffff;fill-opacity:1;stroke:#373737;stroke-width:0;stroke-miterlimit:4;stroke-dasharray:none;stroke-opacity:1"
             id="path2900" />
          <path
             d="m -863.73261,-297.76035 a 4.9606886,4.9606895 0 0 1 -4.96069,4.96069 4.9606886,4.9606895 0 0 1 -4.96069,-4.96069 4.9606886,4.9606895 0 0 1 4.96069,-4.96069 4.9606886,4.9606895 0 0 1 4.96069,4.96069"
             style="opacity:1;fill:#ffffff;fill-opacity:1;stroke:#373737;stroke-width:0;stroke-miterlimit:4;stroke-dasharray:none;stroke-opacity:1"
             id="path2902" />
          <path
             d="m -863.73261,-181.64604 a 4.9606886,4.9606895 0 0 1 -4.96069,4.96069 4.9606886,4.9606895 0 0 1 -4.96069,-4.96069 4.9606886,4.9606895 0 0 1 4.96069,-4.96069 4.9606886,4.9606895 0 0 1 4.96069,4.96069"
             style="opacity:1;fill:#ffffff;fill-opacity:1;stroke:#373737;stroke-width:0;stroke-miterlimit:4;stroke-dasharray:none;stroke-opacity:1"
             id="path2904" />
        </g>
        <g
           style="fill:#ffffff;fill-opacity:1"
           id="g2914"
           transform="matrix(-0.51113222,0.13695746,-0.13695746,-0.51113222,-1336.1448,-289.46396)">
          <path
             d="m -871.33911,-299.46121 h 5.29167 v 120.5744 h -5.29167 z"
             style="opacity:1;fill:#ffffff;fill-opacity:1;stroke:#373737;stroke-width:0;stroke-miterlimit:4;stroke-dasharray:none;stroke-opacity:1"
             id="path2908" />
          <path
             d="m -863.73261,-297.76035 a 4.9606886,4.9606895 0 0 1 -4.96069,4.96069 4.9606886,4.9606895 0 0 1 -4.96069,-4.96069 4.9606886,4.9606895 0 0 1 4.96069,-4.96069 4.9606886,4.9606895 0 0 1 4.96069,4.96069"
             style="opacity:1;fill:#ffffff;fill-opacity:1;stroke:#373737;stroke-width:0;stroke-miterlimit:4;stroke-dasharray:none;stroke-opacity:1"
             id="path2910" />
          <path
             d="m -863.73261,-181.64604 a 4.9606886,4.9606895 0 0 1 -4.96069,4.96069 4.9606886,4.9606895 0 0 1 -4.96069,-4.96069 4.9606886,4.9606895 0 0 1 4.96069,-4.96069 4.9606886,4.9606895 0 0 1 4.96069,4.96069"
             style="opacity:1;fill:#ffffff;fill-opacity:1;stroke:#373737;stroke-width:0;stroke-miterlimit:4;stroke-dasharray:none;stroke-opacity:1"
             id="path2912" />
        </g>
      </g>
    </g>
  </g>
</svg>
