<?xml version="1.0" encoding="UTF-8" standalone="no"?>
<svg
   xmlns:dc="http://purl.org/dc/elements/1.1/"
   xmlns:cc="http://creativecommons.org/ns#"
   xmlns:rdf="http://www.w3.org/1999/02/22-rdf-syntax-ns#"
   xmlns:svg="http://www.w3.org/2000/svg"
   xmlns="http://www.w3.org/2000/svg"
   xmlns:sodipodi="http://sodipodi.sourceforge.net/DTD/sodipodi-0.dtd"
   xmlns:inkscape="http://www.inkscape.org/namespaces/inkscape"
   sodipodi:docname="descending_cases_filter_icon.svg"
   inkscape:version="1.0 (4035a4fb49, 2020-05-01)"
   id="svg8"
   version="1.1"
   viewBox="0 0 10.583333 10.583334"
   height="40"
   width="40">
  <defs
     id="defs2" />
  <sodipodi:namedview
     inkscape:window-maximized="1"
     inkscape:window-y="44"
     inkscape:window-x="-9"
     inkscape:window-height="996"
     inkscape:window-width="1920"
     units="px"
     showgrid="false"
     inkscape:document-rotation="0"
     inkscape:current-layer="layer1"
     inkscape:document-units="mm"
     inkscape:cy="22.193169"
     inkscape:cx="3.2288896"
     inkscape:zoom="11.2"
     inkscape:pageshadow="2"
     inkscape:pageopacity="0.0"
     borderopacity="1.0"
     bordercolor="#666666"
     pagecolor="#ffffff"
     id="base" />
  <metadata
     id="metadata5">
    <rdf:RDF>
      <cc:Work
         rdf:about="">
        <dc:format>image/svg+xml</dc:format>
        <dc:type
           rdf:resource="http://purl.org/dc/dcmitype/StillImage" />
        <dc:title></dc:title>
      </cc:Work>
    </rdf:RDF>
  </metadata>
  <g
     id="layer1"
     inkscape:groupmode="layer"
     inkscape:label="Layer 1">
    <g
       transform="matrix(1.0116479,0,0,1.0116479,-0.20503013,-0.01383971)"
       id="g1179">
      <rect
         ry="2.7522545"
         y="0.037811812"
         x="0.2268009"
         height="10.413216"
         width="10.413215"
         id="rect2694"
         style="fill:#ff7070;fill-opacity:1;stroke:#ff7070;stroke-width:0.0482629;stroke-miterlimit:4;stroke-dasharray:none;stroke-opacity:1"
         inkscape:export-xdpi="96"
         inkscape:export-ydpi="96" />
      <g
         transform="matrix(0.36775329,0,0,-0.36775329,-94.828197,-157.77378)"
         id="g2704"
         inkscape:export-xdpi="96"
         inkscape:export-ydpi="96">
        <text
           id="text2698"
           y="-438.51196"
           x="276.85992"
           style="font-size:20.1633px;line-height:1.25;font-family:Arial;-inkscape-font-specification:Arial;letter-spacing:0px;word-spacing:0px;stroke-width:1.26021"
           xml:space="preserve"><tspan
             style="font-style:normal;font-variant:normal;font-weight:300;font-stretch:normal;font-family:'Josefin Sans';-inkscape-font-specification:'Josefin Sans Light';fill:#ffffff;fill-opacity:1;stroke-width:1.26021"
             y="-438.51196"
             x="276.85992"
             id="tspan2696"
             sodipodi:role="line">^</tspan></text>
        <text
           xml:space="preserve"
           style="font-size:18.6056px;line-height:1.25;font-family:Arial;-inkscape-font-specification:Arial;letter-spacing:0px;word-spacing:0px;stroke-width:1.16286"
           x="257.62061"
           y="-475.40955"
           id="text2702"
           transform="scale(1.0837207,0.92274699)"><tspan
             sodipodi:role="line"
             id="tspan2700"
             x="257.62061"
             y="-475.40955"
             style="font-style:normal;font-variant:normal;font-weight:300;font-stretch:normal;font-family:'Josefin Sans';-inkscape-font-specification:'Josefin Sans Light';fill:#ffffff;fill-opacity:1;stroke-width:1.16286">|</tspan></text>
      </g>
      <g
         transform="matrix(0.09755995,-0.01007501,0.01007501,0.09755988,91.412895,24.644071)"
         id="g2804"
         style="fill:#ffffff;fill-opacity:1"
         inkscape:export-xdpi="96"
         inkscape:export-ydpi="96">
        <path
           id="path2706"
           style="fill:#ffffff;fill-opacity:1;stroke:#373737;stroke-width:0;stroke-miterlimit:4;stroke-dasharray:none;stroke-opacity:1"
           d="m -832.57219,-285.91797 a 26.726337,26.726341 0 0 1 -26.72633,26.72634 26.726337,26.726341 0 0 1 -26.72634,-26.72634 26.726337,26.726341 0 0 1 26.72634,-26.72634 26.726337,26.726341 0 0 1 26.72633,26.72634" />
        <g
           id="g2714"
           transform="matrix(0.52916301,0,0,0.52916301,-399.61818,-159.0759)"
           style="fill:#ffffff;fill-opacity:1">
          <path
             id="path2708"
             style="opacity:1;fill:#ffffff;fill-opacity:1;stroke:#373737;stroke-width:0;stroke-miterlimit:4;stroke-dasharray:none;stroke-opacity:1"
             d="m -871.33911,-299.46121 h 5.29167 v 120.5744 h -5.29167 z" />
          <path
             id="path2710"
             style="opacity:1;fill:#ffffff;fill-opacity:1;stroke:#373737;stroke-width:0;stroke-miterlimit:4;stroke-dasharray:none;stroke-opacity:1"
             d="m -863.73261,-297.76035 a 4.9606886,4.9606895 0 0 1 -4.96069,4.96069 4.9606886,4.9606895 0 0 1 -4.96069,-4.96069 4.9606886,4.9606895 0 0 1 4.96069,-4.96069 4.9606886,4.9606895 0 0 1 4.96069,4.96069" />
          <path
             id="path2712"
             style="opacity:1;fill:#ffffff;fill-opacity:1;stroke:#373737;stroke-width:0;stroke-miterlimit:4;stroke-dasharray:none;stroke-opacity:1"
             d="m -863.73261,-181.64604 a 4.9606886,4.9606895 0 0 1 -4.96069,4.96069 4.9606886,4.9606895 0 0 1 -4.96069,-4.96069 4.9606886,4.9606895 0 0 1 4.96069,-4.96069 4.9606886,4.9606895 0 0 1 4.96069,4.96069" />
        </g>
        <g
           transform="matrix(0.51113222,0.13695746,-0.13695746,0.51113222,-448.11055,-44.423912)"
           id="g2722"
           style="fill:#ffffff;fill-opacity:1">
          <path
             id="path2716"
             style="opacity:1;fill:#ffffff;fill-opacity:1;stroke:#373737;stroke-width:0;stroke-miterlimit:4;stroke-dasharray:none;stroke-opacity:1"
             d="m -871.33911,-299.46121 h 5.29167 v 120.5744 h -5.29167 z" />
          <path
             id="path2718"
             style="opacity:1;fill:#ffffff;fill-opacity:1;stroke:#373737;stroke-width:0;stroke-miterlimit:4;stroke-dasharray:none;stroke-opacity:1"
             d="m -863.73261,-297.76035 a 4.9606886,4.9606895 0 0 1 -4.96069,4.96069 4.9606886,4.9606895 0 0 1 -4.96069,-4.96069 4.9606886,4.9606895 0 0 1 4.96069,-4.96069 4.9606886,4.9606895 0 0 1 4.96069,4.96069" />
          <path
             id="path2720"
             style="opacity:1;fill:#ffffff;fill-opacity:1;stroke:#373737;stroke-width:0;stroke-miterlimit:4;stroke-dasharray:none;stroke-opacity:1"
             d="m -863.73261,-181.64604 a 4.9606886,4.9606895 0 0 1 -4.96069,4.96069 4.9606886,4.9606895 0 0 1 -4.96069,-4.96069 4.9606886,4.9606895 0 0 1 4.96069,-4.96069 4.9606886,4.9606895 0 0 1 4.96069,4.96069" />
        </g>
        <g
           id="g2730"
           transform="matrix(0.45826861,0.2645815,-0.2645815,0.45826861,-524.62471,53.77066)"
           style="fill:#ffffff;fill-opacity:1">
          <path
             id="path2724"
             style="opacity:1;fill:#ffffff;fill-opacity:1;stroke:#373737;stroke-width:0;stroke-miterlimit:4;stroke-dasharray:none;stroke-opacity:1"
             d="m -871.33911,-299.46121 h 5.29167 v 120.5744 h -5.29167 z" />
          <path
             id="path2726"
             style="opacity:1;fill:#ffffff;fill-opacity:1;stroke:#373737;stroke-width:0;stroke-miterlimit:4;stroke-dasharray:none;stroke-opacity:1"
             d="m -863.73261,-297.76035 a 4.9606886,4.9606895 0 0 1 -4.96069,4.96069 4.9606886,4.9606895 0 0 1 -4.96069,-4.96069 4.9606886,4.9606895 0 0 1 4.96069,-4.96069 4.9606886,4.9606895 0 0 1 4.96069,4.96069" />
          <path
             id="path2728"
             style="opacity:1;fill:#ffffff;fill-opacity:1;stroke:#373737;stroke-width:0;stroke-miterlimit:4;stroke-dasharray:none;stroke-opacity:1"
             d="m -863.73261,-181.64604 a 4.9606886,4.9606895 0 0 1 -4.96069,4.96069 4.9606886,4.9606895 0 0 1 -4.96069,-4.96069 4.9606886,4.9606895 0 0 1 4.96069,-4.96069 4.9606886,4.9606895 0 0 1 4.96069,4.96069" />
        </g>
        <g
           transform="matrix(0.37417475,0.37417475,-0.37417475,0.37417475,-623.94633,128.81601)"
           id="g2738"
           style="fill:#ffffff;fill-opacity:1">
          <path
             id="path2732"
             style="opacity:1;fill:#ffffff;fill-opacity:1;stroke:#373737;stroke-width:0;stroke-miterlimit:4;stroke-dasharray:none;stroke-opacity:1"
             d="m -871.33911,-299.46121 h 5.29167 v 120.5744 h -5.29167 z" />
          <path
             id="path2734"
             style="opacity:1;fill:#ffffff;fill-opacity:1;stroke:#373737;stroke-width:0;stroke-miterlimit:4;stroke-dasharray:none;stroke-opacity:1"
             d="m -863.73261,-297.76035 a 4.9606886,4.9606895 0 0 1 -4.96069,4.96069 4.9606886,4.9606895 0 0 1 -4.96069,-4.96069 4.9606886,4.9606895 0 0 1 4.96069,-4.96069 4.9606886,4.9606895 0 0 1 4.96069,4.96069" />
          <path
             id="path2736"
             style="opacity:1;fill:#ffffff;fill-opacity:1;stroke:#373737;stroke-width:0;stroke-miterlimit:4;stroke-dasharray:none;stroke-opacity:1"
             d="m -863.73261,-181.64604 a 4.9606886,4.9606895 0 0 1 -4.96069,4.96069 4.9606886,4.9606895 0 0 1 -4.96069,-4.96069 4.9606886,4.9606895 0 0 1 4.96069,-4.96069 4.9606886,4.9606895 0 0 1 4.96069,4.96069" />
        </g>
        <g
           id="g2746"
           transform="matrix(0.26458151,0.45826861,-0.45826861,0.26458151,-739.30681,175.59793)"
           style="fill:#ffffff;fill-opacity:1">
          <path
             id="path2740"
             style="opacity:1;fill:#ffffff;fill-opacity:1;stroke:#373737;stroke-width:0;stroke-miterlimit:4;stroke-dasharray:none;stroke-opacity:1"
             d="m -871.33911,-299.46121 h 5.29167 v 120.5744 h -5.29167 z" />
          <path
             id="path2742"
             style="opacity:1;fill:#ffffff;fill-opacity:1;stroke:#373737;stroke-width:0;stroke-miterlimit:4;stroke-dasharray:none;stroke-opacity:1"
             d="m -863.73261,-297.76035 a 4.9606886,4.9606895 0 0 1 -4.96069,4.96069 4.9606886,4.9606895 0 0 1 -4.96069,-4.96069 4.9606886,4.9606895 0 0 1 4.96069,-4.96069 4.9606886,4.9606895 0 0 1 4.96069,4.96069" />
          <path
             id="path2744"
             style="opacity:1;fill:#ffffff;fill-opacity:1;stroke:#373737;stroke-width:0;stroke-miterlimit:4;stroke-dasharray:none;stroke-opacity:1"
             d="m -863.73261,-181.64604 a 4.9606886,4.9606895 0 0 1 -4.96069,4.96069 4.9606886,4.9606895 0 0 1 -4.96069,-4.96069 4.9606886,4.9606895 0 0 1 4.96069,-4.96069 4.9606886,4.9606895 0 0 1 4.96069,4.96069" />
        </g>
        <g
           transform="matrix(0.13695746,0.51113222,-0.51113222,0.13695746,-862.84454,190.9283)"
           id="g2754"
           style="fill:#ffffff;fill-opacity:1">
          <path
             id="path2748"
             style="opacity:1;fill:#ffffff;fill-opacity:1;stroke:#373737;stroke-width:0;stroke-miterlimit:4;stroke-dasharray:none;stroke-opacity:1"
             d="m -871.33911,-299.46121 h 5.29167 v 120.5744 h -5.29167 z" />
          <path
             id="path2750"
             style="opacity:1;fill:#ffffff;fill-opacity:1;stroke:#373737;stroke-width:0;stroke-miterlimit:4;stroke-dasharray:none;stroke-opacity:1"
             d="m -863.73261,-297.76035 a 4.9606886,4.9606895 0 0 1 -4.96069,4.96069 4.9606886,4.9606895 0 0 1 -4.96069,-4.96069 4.9606886,4.9606895 0 0 1 4.96069,-4.96069 4.9606886,4.9606895 0 0 1 4.96069,4.96069" />
          <path
             id="path2752"
             style="opacity:1;fill:#ffffff;fill-opacity:1;stroke:#373737;stroke-width:0;stroke-miterlimit:4;stroke-dasharray:none;stroke-opacity:1"
             d="m -863.73261,-181.64604 a 4.9606886,4.9606895 0 0 1 -4.96069,4.96069 4.9606886,4.9606895 0 0 1 -4.96069,-4.96069 4.9606886,4.9606895 0 0 1 4.96069,-4.96069 4.9606886,4.9606895 0 0 1 4.96069,4.96069" />
        </g>
        <g
           id="g2762"
           transform="matrix(0,0.52916301,-0.52916301,0,-986.14061,173.76239)"
           style="fill:#ffffff;fill-opacity:1">
          <path
             id="path2756"
             style="opacity:1;fill:#ffffff;fill-opacity:1;stroke:#373737;stroke-width:0;stroke-miterlimit:4;stroke-dasharray:none;stroke-opacity:1"
             d="m -871.33911,-299.46121 h 5.29167 v 120.5744 h -5.29167 z" />
          <path
             id="path2758"
             style="opacity:1;fill:#ffffff;fill-opacity:1;stroke:#373737;stroke-width:0;stroke-miterlimit:4;stroke-dasharray:none;stroke-opacity:1"
             d="m -863.73261,-297.76035 a 4.9606886,4.9606895 0 0 1 -4.96069,4.96069 4.9606886,4.9606895 0 0 1 -4.96069,-4.96069 4.9606886,4.9606895 0 0 1 4.96069,-4.96069 4.9606886,4.9606895 0 0 1 4.96069,4.96069" />
          <path
             id="path2760"
             style="opacity:1;fill:#ffffff;fill-opacity:1;stroke:#373737;stroke-width:0;stroke-miterlimit:4;stroke-dasharray:none;stroke-opacity:1"
             d="m -863.73261,-181.64604 a 4.9606886,4.9606895 0 0 1 -4.96069,4.96069 4.9606886,4.9606895 0 0 1 -4.96069,-4.96069 4.9606886,4.9606895 0 0 1 4.96069,-4.96069 4.9606886,4.9606895 0 0 1 4.96069,4.96069" />
        </g>
        <g
           transform="matrix(-0.13695746,0.51113222,-0.51113222,-0.13695746,-1100.7926,125.27002)"
           id="g2770"
           style="fill:#ffffff;fill-opacity:1">
          <path
             id="path2764"
             style="opacity:1;fill:#ffffff;fill-opacity:1;stroke:#373737;stroke-width:0;stroke-miterlimit:4;stroke-dasharray:none;stroke-opacity:1"
             d="m -871.33911,-299.46121 h 5.29167 v 120.5744 h -5.29167 z" />
          <path
             id="path2766"
             style="opacity:1;fill:#ffffff;fill-opacity:1;stroke:#373737;stroke-width:0;stroke-miterlimit:4;stroke-dasharray:none;stroke-opacity:1"
             d="m -863.73261,-297.76035 a 4.9606886,4.9606895 0 0 1 -4.96069,4.96069 4.9606886,4.9606895 0 0 1 -4.96069,-4.96069 4.9606886,4.9606895 0 0 1 4.96069,-4.96069 4.9606886,4.9606895 0 0 1 4.96069,4.96069" />
          <path
             id="path2768"
             style="opacity:1;fill:#ffffff;fill-opacity:1;stroke:#373737;stroke-width:0;stroke-miterlimit:4;stroke-dasharray:none;stroke-opacity:1"
             d="m -863.73261,-181.64604 a 4.9606886,4.9606895 0 0 1 -4.96069,4.96069 4.9606886,4.9606895 0 0 1 -4.96069,-4.96069 4.9606886,4.9606895 0 0 1 4.96069,-4.96069 4.9606886,4.9606895 0 0 1 4.96069,4.96069" />
        </g>
        <g
           id="g2778"
           transform="matrix(-0.2645815,0.45826861,-0.45826861,-0.2645815,-1198.9872,48.755868)"
           style="fill:#ffffff;fill-opacity:1">
          <path
             id="path2772"
             style="opacity:1;fill:#ffffff;fill-opacity:1;stroke:#373737;stroke-width:0;stroke-miterlimit:4;stroke-dasharray:none;stroke-opacity:1"
             d="m -871.33911,-299.46121 h 5.29167 v 120.5744 h -5.29167 z" />
          <path
             id="path2774"
             style="opacity:1;fill:#ffffff;fill-opacity:1;stroke:#373737;stroke-width:0;stroke-miterlimit:4;stroke-dasharray:none;stroke-opacity:1"
             d="m -863.73261,-297.76035 a 4.9606886,4.9606895 0 0 1 -4.96069,4.96069 4.9606886,4.9606895 0 0 1 -4.96069,-4.96069 4.9606886,4.9606895 0 0 1 4.96069,-4.96069 4.9606886,4.9606895 0 0 1 4.96069,4.96069" />
          <path
             id="path2776"
             style="opacity:1;fill:#ffffff;fill-opacity:1;stroke:#373737;stroke-width:0;stroke-miterlimit:4;stroke-dasharray:none;stroke-opacity:1"
             d="m -863.73261,-181.64604 a 4.9606886,4.9606895 0 0 1 -4.96069,4.96069 4.9606886,4.9606895 0 0 1 -4.96069,-4.96069 4.9606886,4.9606895 0 0 1 4.96069,-4.96069 4.9606886,4.9606895 0 0 1 4.96069,4.96069" />
        </g>
        <g
           transform="matrix(-0.37417475,0.37417475,-0.37417475,-0.37417475,-1274.0325,-50.565752)"
           id="g2786"
           style="fill:#ffffff;fill-opacity:1">
          <path
             id="path2780"
             style="opacity:1;fill:#ffffff;fill-opacity:1;stroke:#373737;stroke-width:0;stroke-miterlimit:4;stroke-dasharray:none;stroke-opacity:1"
             d="m -871.33911,-299.46121 h 5.29167 v 120.5744 h -5.29167 z" />
          <path
             id="path2782"
             style="opacity:1;fill:#ffffff;fill-opacity:1;stroke:#373737;stroke-width:0;stroke-miterlimit:4;stroke-dasharray:none;stroke-opacity:1"
             d="m -863.73261,-297.76035 a 4.9606886,4.9606895 0 0 1 -4.96069,4.96069 4.9606886,4.9606895 0 0 1 -4.96069,-4.96069 4.9606886,4.9606895 0 0 1 4.96069,-4.96069 4.9606886,4.9606895 0 0 1 4.96069,4.96069" />
          <path
             id="path2784"
             style="opacity:1;fill:#ffffff;fill-opacity:1;stroke:#373737;stroke-width:0;stroke-miterlimit:4;stroke-dasharray:none;stroke-opacity:1"
             d="m -863.73261,-181.64604 a 4.9606886,4.9606895 0 0 1 -4.96069,4.96069 4.9606886,4.9606895 0 0 1 -4.96069,-4.96069 4.9606886,4.9606895 0 0 1 4.96069,-4.96069 4.9606886,4.9606895 0 0 1 4.96069,4.96069" />
        </g>
        <g
           id="g2794"
           transform="matrix(-0.45826861,0.2645815,-0.2645815,-0.45826861,-1320.8144,-165.92624)"
           style="fill:#ffffff;fill-opacity:1">
          <path
             id="path2788"
             style="opacity:1;fill:#ffffff;fill-opacity:1;stroke:#373737;stroke-width:0;stroke-miterlimit:4;stroke-dasharray:none;stroke-opacity:1"
             d="m -871.33911,-299.46121 h 5.29167 v 120.5744 h -5.29167 z" />
          <path
             id="path2790"
             style="opacity:1;fill:#ffffff;fill-opacity:1;stroke:#373737;stroke-width:0;stroke-miterlimit:4;stroke-dasharray:none;stroke-opacity:1"
             d="m -863.73261,-297.76035 a 4.9606886,4.9606895 0 0 1 -4.96069,4.96069 4.9606886,4.9606895 0 0 1 -4.96069,-4.96069 4.9606886,4.9606895 0 0 1 4.96069,-4.96069 4.9606886,4.9606895 0 0 1 4.96069,4.96069" />
          <path
             id="path2792"
             style="opacity:1;fill:#ffffff;fill-opacity:1;stroke:#373737;stroke-width:0;stroke-miterlimit:4;stroke-dasharray:none;stroke-opacity:1"
             d="m -863.73261,-181.64604 a 4.9606886,4.9606895 0 0 1 -4.96069,4.96069 4.9606886,4.9606895 0 0 1 -4.96069,-4.96069 4.9606886,4.9606895 0 0 1 4.96069,-4.96069 4.9606886,4.9606895 0 0 1 4.96069,4.96069" />
        </g>
        <g
           transform="matrix(-0.51113222,0.13695746,-0.13695746,-0.51113222,-1336.1448,-289.46396)"
           id="g2802"
           style="fill:#ffffff;fill-opacity:1">
          <path
             id="path2796"
             style="opacity:1;fill:#ffffff;fill-opacity:1;stroke:#373737;stroke-width:0;stroke-miterlimit:4;stroke-dasharray:none;stroke-opacity:1"
             d="m -871.33911,-299.46121 h 5.29167 v 120.5744 h -5.29167 z" />
          <path
             id="path2798"
             style="opacity:1;fill:#ffffff;fill-opacity:1;stroke:#373737;stroke-width:0;stroke-miterlimit:4;stroke-dasharray:none;stroke-opacity:1"
             d="m -863.73261,-297.76035 a 4.9606886,4.9606895 0 0 1 -4.96069,4.96069 4.9606886,4.9606895 0 0 1 -4.96069,-4.96069 4.9606886,4.9606895 0 0 1 4.96069,-4.96069 4.9606886,4.9606895 0 0 1 4.96069,4.96069" />
          <path
             id="path2800"
             style="opacity:1;fill:#ffffff;fill-opacity:1;stroke:#373737;stroke-width:0;stroke-miterlimit:4;stroke-dasharray:none;stroke-opacity:1"
             d="m -863.73261,-181.64604 a 4.9606886,4.9606895 0 0 1 -4.96069,4.96069 4.9606886,4.9606895 0 0 1 -4.96069,-4.96069 4.9606886,4.9606895 0 0 1 4.96069,-4.96069 4.9606886,4.9606895 0 0 1 4.96069,4.96069" />
        </g>
      </g>
    </g>
  </g>
</svg>
